<svg xmlns="http://www.w3.org/2000/svg" viewBox="0 0 512 512">
  <defs>
    <linearGradient id="mask-g" x1="0" y1="180" x2="0" y2="430" gradientUnits="userSpaceOnUse">
      <stop offset="0%" stop-color="white"/>
      <stop offset="100%" stop-color="black"/>
    </linearGradient>
    <mask id="fade-mask">
      <rect x="0" y="0" width="512" height="180" fill="white"/>
      <rect x="0" y="180" width="512" height="250" fill="url(#mask-g)"/>
    </mask>
  </defs>
  <g transform="translate(0,512) scale(0.1,-0.1)" fill="#7C6AE8"><path d="M3357 5078 c-42 -58 -139 -196 -359 -513 -612 -883 -629 -908 -616 -921 5 -5 135 35 398 121 58 19 115 35 126 35 l22 0 7 -1107 c4 -610 5 -1145 1 -1189 -12 -157 -82 -318 -183 -421 -83 -84 -163 -134 -270 -169 -78 -26 -102 -29 -213 -29 -146 1 -201 14 -332 82 -214 110 -350 342 -350 598 0 85 5 115 31 197 38 117 86 192 185 286 76 72 184 133 286 163 72 21 292 18 368 -5 34 -10 64 -17 67 -15 8 9 7 891 -2 900 -5 5 -65 13 -135 19 -255 21 -533 -28 -783 -138 -166 -73 -302 -168 -450 -317 -130 -130 -224 -265 -294 -422 -145 -323 -181 -616 -120 -973 113 -657 641 -1143 1340 -1236 573 -76 1177 197 1498 676 82 122 165 301 200 430 55 203 54 181 60 1472 3 658 8 1199 11 1202 8 8 55 -5 290 -79 230 -73 270 -83 270 -68 0 6 -22 39 -48 74 -26 35 -95 132 -152 214 -57 83 -188 269 -290 415 -103 146 -262 374 -354 508 -93 133 -172 242 -177 242 -4 0 -19 -15 -32 -32z"/></g>
  <g mask="url(#fade-mask)"><g transform="translate(0,512) scale(0.1,-0.1)" fill="#F5B731"><path d="M3357 5078 c-42 -58 -139 -196 -359 -513 -612 -883 -629 -908 -616 -921 5 -5 135 35 398 121 58 19 115 35 126 35 l22 0 7 -1107 c4 -610 5 -1145 1 -1189 -12 -157 -82 -318 -183 -421 -83 -84 -163 -134 -270 -169 -78 -26 -102 -29 -213 -29 -146 1 -201 14 -332 82 -214 110 -350 342 -350 598 0 85 5 115 31 197 38 117 86 192 185 286 76 72 184 133 286 163 72 21 292 18 368 -5 34 -10 64 -17 67 -15 8 9 7 891 -2 900 -5 5 -65 13 -135 19 -255 21 -533 -28 -783 -138 -166 -73 -302 -168 -450 -317 -130 -130 -224 -265 -294 -422 -145 -323 -181 -616 -120 -973 113 -657 641 -1143 1340 -1236 573 -76 1177 197 1498 676 82 122 165 301 200 430 55 203 54 181 60 1472 3 658 8 1199 11 1202 8 8 55 -5 290 -79 230 -73 270 -83 270 -68 0 6 -22 39 -48 74 -26 35 -95 132 -152 214 -57 83 -188 269 -290 415 -103 146 -262 374 -354 508 -93 133 -172 242 -177 242 -4 0 -19 -15 -32 -32z"/></g></g>
</svg>